<?xml version="1.0" encoding="utf-8"?>
<svg viewBox="0 0 567 68" xmlns="http://www.w3.org/2000/svg">
	<title>Cory Birdsong</title>
	<path fill="currentColor"
		d="M 36.8 53.65 C 34 54.55 31.1 54.95 28 54.95 C 23.8 54.95 19.9 54.15 16.4 52.65 C 12.9 51.05 9.8 48.75 7.2 45.75 C 5 43.25 3.4 40.45 2.2 37.45 C 1.1 34.45 0.5 31.35 0.5 28.15 C 0.5 24.55 1.2 21.05 2.7 17.65 C 4.1 14.15 6.1 11.15 8.6 8.55 C 11.2 5.95 14.1 3.95 17.5 2.55 C 20.8 1.15 24.3 0.45 27.9 0.45 C 30.7 0.45 33.5 0.85 36.5 1.85 C 39.4 2.75 40.9 3.25 41.1 3.25 C 41.4 3.25 41.9 3.15 42.8 2.85 C 43.6 2.65 44.3 2.55 44.9 2.55 C 46.8 2.55 48.6 3.95 50.2 6.65 C 51.9 9.35 52.6 12.35 52.6 15.55 C 52.6 17.95 52 19.85 50.6 21.35 C 49.3 22.85 47.6 23.55 45.6 23.55 C 43.4 23.55 41.4 22.15 39.7 19.45 C 39.3 18.65 38.9 18.05 38.6 17.75 C 37.2 15.85 35.6 14.25 33.7 13.25 C 31.8 12.25 29.9 11.65 27.9 11.65 C 25.2 11.65 23.1 12.55 21.6 14.35 C 20.1 16.05 19.4 18.55 19.4 21.65 C 19.4 26.85 21 31.25 24.2 34.95 C 27.4 38.65 31.2 40.45 35.5 40.45 C 37.4 40.45 39.2 40.05 40.8 39.45 C 42.5 38.85 44.1 37.75 45.6 36.45 C 45.7 36.35 46 36.15 46.2 35.95 C 47.1 35.15 47.8 34.75 48.4 34.75 C 49.3 34.75 50.2 35.25 50.8 36.15 C 51.4 37.15 51.8 38.35 51.8 39.85 C 51.8 41.15 51.6 42.45 51.1 43.85 C 50.6 45.15 49.9 46.35 49.2 47.35 C 48.6 48.25 47.9 48.85 47.3 49.25 C 46.7 49.65 46 49.85 45.3 49.85 C 45.2 49.85 45 49.85 44.9 49.85 C 44.8 49.75 44.7 49.75 44.6 49.75 C 42.2 51.45 39.6 52.75 36.8 53.65 Z" />
	<path fill="currentColor"
		d="M 63.4 20.75 C 67.9 16.75 73.3 14.75 79.7 14.75 C 85.7 14.75 90.6 16.45 94.4 19.95 C 98.2 23.45 100.1 28.05 100.1 33.65 C 100.1 39.65 97.9 44.55 93.5 48.65 C 89.1 52.75 83.7 54.75 77.2 54.75 C 71.4 54.75 66.5 52.85 62.6 49.05 C 58.6 45.25 56.6 40.65 56.6 35.35 C 56.6 29.65 58.8 24.75 63.4 20.75 Z M 75.7 40.85 C 77 44.05 78.4 45.65 80 45.65 C 80.9 45.65 81.7 45.25 82.3 44.35 C 82.9 43.45 83.2 42.35 83.2 40.85 C 83.2 36.45 82.6 32.55 81.3 29.15 C 80 25.85 78.6 24.15 76.9 24.15 C 75.8 24.15 75.1 24.65 74.6 25.55 C 74 26.55 73.8 28.05 73.8 30.05 C 73.8 34.05 74.4 37.65 75.7 40.85 Z" />
	<path fill="currentColor"
		d="M 105 44.85 C 105.4 44.65 105.6 44.45 105.7 44.35 C 106.3 43.85 106.8 42.85 107 41.35 C 107.2 39.85 107.4 36.15 107.4 30.35 C 107.4 28.75 107.3 27.75 107.3 27.45 C 107.2 27.05 106.7 26.65 105.6 26.05 C 104.7 25.55 104 25.05 103.6 24.45 C 103.2 23.85 103 23.25 103 22.65 C 103 20.85 104.9 19.15 108.8 17.55 C 112.8 15.95 117 15.15 121.6 15.15 C 122.6 15.15 123.3 15.25 123.6 15.55 C 124 15.85 124.2 16.45 124.3 17.25 C 124.4 17.65 124.4 18.15 124.4 18.65 C 124.5 19.85 124.8 20.45 125.2 20.45 C 125.6 20.45 125.9 20.05 126.2 19.25 C 126.4 18.65 126.6 18.35 126.8 18.05 C 127.4 16.95 128.4 16.15 129.5 15.65 C 130.6 15.15 131.8 14.85 133.2 14.85 C 136.1 14.85 138.5 15.75 140.3 17.45 C 142.1 19.15 143 21.45 143 24.25 C 143 27.05 142.2 29.25 140.6 31.15 C 138.9 32.95 136.8 33.85 134.3 33.85 C 132.9 33.85 131.6 33.55 130.3 32.95 C 129.1 32.35 128.1 31.45 127.6 30.55 C 127.5 30.35 127.3 29.95 127.1 29.65 C 126.8 28.85 126.4 28.45 126 28.45 C 125.5 28.45 125.1 29.05 124.9 30.15 C 124.8 31.35 124.6 33.45 124.6 36.65 C 124.6 39.85 124.7 41.95 125 42.95 C 125.2 43.95 125.7 44.65 126.4 45.15 C 126.7 45.25 127.1 45.55 127.6 45.75 C 129.6 46.65 130.6 47.85 130.6 49.35 C 130.6 51.15 129.6 52.55 127.4 53.25 C 125.3 54.05 121.8 54.45 116.8 54.45 C 112.1 54.45 108.6 53.95 106.2 53.05 C 103.8 52.05 102.7 50.65 102.7 48.75 C 102.7 47.15 103.5 45.85 105 44.85 Z" />
	<path fill="currentColor"
		d="M 149.5 30.15 C 149.4 29.95 149.2 29.55 149.1 29.15 C 148.2 27.05 147.2 25.75 146.1 25.15 C 146 25.05 145.7 25.05 145.5 24.85 C 143.7 23.95 142.8 22.75 142.8 21.25 C 142.8 19.35 144 17.85 146.5 16.75 C 149 15.75 152.6 15.25 157.3 15.25 C 161.9 15.25 165 15.65 166.6 16.35 C 168.3 17.15 169 18.45 169 20.35 C 169 21.25 168.8 22.25 168.3 23.05 C 167.8 23.85 167.5 24.45 167.5 24.55 C 167.5 24.75 167.6 25.15 167.9 25.95 C 168.2 26.75 168.5 27.65 168.9 28.65 C 169.3 29.75 169.8 30.55 170.2 31.15 C 170.7 31.75 171.2 32.05 171.7 32.05 C 172.4 32.05 173.1 31.35 173.6 29.85 C 174.2 28.45 174.5 26.65 174.5 24.65 C 174.5 24.05 174.1 23.25 173.3 22.45 C 172.5 21.55 172.1 20.75 172.1 20.05 C 172.1 18.45 173 17.25 174.6 16.35 C 176.2 15.55 178.6 15.15 181.8 15.15 C 184.5 15.15 186.6 15.55 188 16.25 C 189.4 16.95 190 18.15 190 19.65 C 190 20.75 189.8 21.55 189.3 22.15 C 188.9 22.75 187.9 23.25 186.5 23.75 C 185.3 24.15 184.4 24.75 183.8 25.45 C 183.2 26.15 182.4 27.75 181.5 30.25 C 180.9 31.85 179.6 35.75 177.7 42.05 C 175.8 48.25 173.9 53.05 172.1 56.35 C 170.1 60.15 167.7 62.95 165 64.75 C 162.3 66.65 159.2 67.55 155.8 67.55 C 152.2 67.55 149.3 66.65 147.2 64.75 C 145 62.85 143.9 60.55 143.9 57.45 C 143.9 55.45 144.5 53.75 145.9 52.35 C 147.2 50.95 148.8 50.25 150.6 50.25 C 151.9 50.25 153 50.65 154.1 51.25 C 155.1 51.85 155.9 52.75 156.4 53.95 C 156.7 54.55 157 55.55 157.3 56.65 C 157.7 58.15 158.2 58.85 158.8 58.85 C 159.4 58.85 159.8 58.65 160.1 58.25 C 160.5 57.85 160.6 57.25 160.6 56.45 C 160.6 54.55 158.8 49.85 155.3 42.15 C 155.3 42.05 155.2 42.05 155.2 41.95 L 149.5 30.15 Z" />
	<path fill="currentColor"
		d="M 217.9 53.75 C 216.6 53.75 215.5 53.35 214.5 52.65 C 213.6 51.95 213.1 51.05 213.1 49.95 C 213.1 48.55 214 47.45 215.5 46.55 C 215.9 46.35 216.1 46.15 216.3 46.15 C 217.3 45.55 218 43.75 218.3 40.85 C 218.7 38.05 218.9 32.25 218.9 23.55 L 218.9 17.95 C 218.9 14.85 218.8 12.65 218.7 11.65 C 218.5 10.45 218.2 9.75 217.8 9.45 C 217.5 9.25 217 9.05 216.3 8.75 C 214.2 7.95 213.2 6.85 213.2 5.25 C 213.2 3.85 213.8 2.85 214.9 2.15 C 216 1.45 217.7 1.25 220.1 1.25 C 221.4 1.25 223.1 1.25 225.2 1.35 C 227.3 1.45 228.7 1.45 229.5 1.45 C 231.3 1.45 233.7 1.35 236.9 1.35 C 240 1.25 242.3 1.25 243.7 1.25 C 250 1.25 254.7 2.25 257.7 4.25 C 260.7 6.25 262.2 9.45 262.2 13.65 C 262.2 15.05 262 16.55 261.5 17.85 C 261.1 19.15 260.4 20.25 259.6 21.05 C 259.2 21.45 258.4 22.05 257.4 22.75 C 256.5 23.45 256 24.05 256 24.45 C 256 24.95 256.6 25.35 257.9 25.65 C 258.8 25.85 259.6 26.05 260.2 26.35 C 262.1 27.25 263.7 28.55 264.7 30.55 C 265.8 32.45 266.4 34.75 266.4 37.35 C 266.4 42.25 264.7 46.15 261.5 49.05 C 258.3 51.95 253.9 53.55 248.5 53.55 L 219.6 53.55 L 217.9 53.55 Z M 236.9 22.05 C 236.9 22.65 237 22.95 237.2 23.15 C 237.5 23.25 237.8 23.35 238.4 23.35 C 240.3 23.35 241.8 22.85 242.6 21.75 C 243.5 20.75 243.9 18.95 243.9 16.55 C 243.9 13.85 243.5 11.95 242.6 11.05 C 241.8 10.05 240.3 9.55 238.1 9.55 C 237.7 9.55 237.4 9.65 237.2 9.75 C 237.1 9.85 237 10.05 237 10.35 C 237 10.35 237 10.45 237 10.55 C 237.1 10.65 237.1 10.85 237.1 10.95 L 237.1 21.75 L 237.1 22.05 Z M 236.9 36.85 C 236.9 41.05 237.1 43.55 237.4 44.35 C 237.8 45.25 238.6 45.65 240 45.65 C 241.9 45.65 243.4 45.05 244.4 43.75 C 245.4 42.45 245.9 40.55 245.9 38.15 C 245.9 35.85 245.3 34.15 244.2 32.95 C 243 31.85 241.3 31.25 239 31.25 C 238.1 31.25 237.5 31.35 237.3 31.65 C 237 31.95 236.9 32.55 236.9 33.55 L 236.9 36.85 Z" />
	<path fill="currentColor"
		d="M 291.6 41.65 C 291.6 43.35 292.2 44.65 293.6 45.75 C 294.9 46.85 295.5 47.95 295.5 49.05 C 295.5 50.75 294.5 52.15 292.3 53.05 C 290.2 53.95 287 54.45 282.9 54.45 C 278.7 54.45 275.3 53.95 273 53.05 C 270.7 52.15 269.5 50.75 269.5 49.05 C 269.5 47.85 270.1 46.75 271.5 45.85 C 271.8 45.55 272.1 45.45 272.2 45.25 C 272.8 44.75 273.2 44.05 273.4 43.05 C 273.6 42.15 273.8 40.35 273.8 37.75 L 273.8 34.35 L 273.8 33.45 C 273.8 30.65 273.7 28.85 273.4 27.95 C 273.1 27.05 272.6 26.45 271.8 26.05 C 271.7 25.95 271.7 25.95 271.5 25.95 C 270 25.05 269.2 23.95 269.2 22.75 C 269.2 21.65 269.6 20.85 270.4 20.05 C 271.3 19.45 272.8 18.65 275.3 17.85 C 277.9 16.95 280.6 16.25 283.1 15.75 C 285.7 15.25 287.6 14.95 289 14.95 C 290 14.95 290.6 15.05 290.9 15.35 C 291.2 15.65 291.3 16.25 291.3 17.35 L 291.3 19.55 L 291.3 41.65 Z M 271.9 11.65 C 270.6 10.75 270 9.35 270 7.55 C 270 5.65 271.2 4.05 273.7 2.75 C 276.1 1.35 279.2 0.65 282.7 0.65 C 285.4 0.65 287.5 1.05 288.9 1.95 C 290.3 2.85 291.1 4.15 291.1 5.65 C 291.1 7.75 289.9 9.45 287.4 10.95 C 284.8 12.35 281.7 13.05 277.9 13.05 C 275.2 12.95 273.3 12.55 271.9 11.65 Z" />
	<path fill="currentColor"
		d="M 300.7 44.85 C 301.1 44.65 301.3 44.45 301.4 44.35 C 302 43.85 302.5 42.85 302.7 41.35 C 302.9 39.85 303.1 36.15 303.1 30.35 C 303.1 28.75 303 27.75 303 27.45 C 302.9 27.05 302.4 26.65 301.3 26.05 C 300.4 25.55 299.7 25.05 299.3 24.45 C 298.9 23.85 298.7 23.25 298.7 22.65 C 298.7 20.85 300.6 19.15 304.5 17.55 C 308.5 15.95 312.7 15.15 317.3 15.15 C 318.3 15.15 319 15.25 319.3 15.55 C 319.7 15.85 319.9 16.45 320 17.25 C 320.1 17.65 320.1 18.15 320.1 18.65 C 320.2 19.85 320.5 20.45 320.9 20.45 C 321.3 20.45 321.6 20.05 321.9 19.25 C 322.1 18.65 322.3 18.35 322.5 18.05 C 323.1 16.95 324.1 16.15 325.2 15.65 C 326.3 15.15 327.5 14.85 328.9 14.85 C 331.8 14.85 334.2 15.75 336 17.45 C 337.8 19.15 338.7 21.45 338.7 24.25 C 338.7 27.05 337.9 29.25 336.3 31.15 C 334.6 32.95 332.5 33.85 330 33.85 C 328.6 33.85 327.3 33.55 326 32.95 C 324.8 32.35 323.8 31.45 323.3 30.55 C 323.2 30.35 323 29.95 322.8 29.65 C 322.5 28.85 322.1 28.45 321.7 28.45 C 321.2 28.45 320.8 29.05 320.6 30.15 C 320.5 31.35 320.3 33.45 320.3 36.65 C 320.3 39.85 320.4 41.95 320.7 42.95 C 320.9 43.95 321.4 44.65 322.1 45.15 C 322.4 45.25 322.8 45.55 323.3 45.75 C 325.3 46.65 326.3 47.85 326.3 49.35 C 326.3 51.15 325.3 52.55 323.1 53.25 C 321 54.05 317.5 54.45 312.5 54.45 C 307.8 54.45 304.3 53.95 301.9 53.05 C 299.5 52.05 298.4 50.65 298.4 48.75 C 298.4 47.15 299.2 45.85 300.7 44.85 Z" />
	<path fill="currentColor"
		d="M 344.5 20.25 C 348.1 16.55 352.4 14.55 357.5 14.55 C 360.2 14.55 362.8 15.15 365.4 16.45 C 365.8 16.55 366 16.75 366 16.75 C 366 16.75 366.1 16.65 366.2 16.45 C 366.3 16.35 366.3 15.85 366.3 15.25 L 366.3 13.45 C 366.3 12.65 366.2 12.15 366.2 11.95 C 366.1 11.65 365.9 11.45 365.6 11.35 C 365.3 11.25 364.9 11.05 364.3 10.85 C 362.6 10.25 361.7 9.45 361.7 8.25 C 361.7 7.25 362.1 6.45 362.9 5.75 C 363.7 5.15 365 4.45 366.9 3.85 C 369.4 3.15 372 2.45 374.7 2.05 C 377.4 1.65 379.7 1.45 381.5 1.45 C 382.4 1.45 382.9 1.55 383.1 1.95 C 383.3 2.25 383.5 3.15 383.5 4.85 L 383.5 5.45 C 383.5 5.85 383.5 6.85 383.4 8.45 C 383.3 17.15 383.2 25.85 383.2 34.55 L 383.2 37.45 C 383.2 39.95 383.3 41.65 383.5 42.35 C 383.6 43.15 383.9 43.65 384.4 44.05 C 384.6 44.15 385 44.45 385.7 44.65 C 387.5 45.25 388.4 46.15 388.4 47.35 C 388.4 48.25 388.1 49.05 387.4 49.85 C 386.8 50.55 385.7 51.25 384.4 51.75 C 382.3 52.65 380.2 53.45 378.1 53.95 C 375.9 54.45 374 54.65 372.3 54.65 C 370.4 54.65 369 54.55 368.3 54.15 C 367.6 53.85 367.2 53.25 367.2 52.35 L 367.2 50.75 C 367.2 50.35 367.1 50.15 367.1 49.95 C 367 49.65 366.9 49.55 366.7 49.55 C 366.5 49.55 366.1 49.85 365.4 50.45 C 362.4 52.85 359.4 53.95 356.3 53.95 C 351.6 53.95 347.6 52.05 344.3 48.25 C 340.9 44.45 339.3 39.75 339.3 34.25 C 339.2 28.75 341 24.05 344.5 20.25 Z M 358.6 41.25 C 359.4 42.95 360.5 43.65 361.9 43.65 C 363.5 43.65 364.6 42.75 365.3 40.75 C 365.9 38.85 366.3 35.45 366.3 30.55 L 366.3 28.45 C 366.3 26.35 366.1 24.95 365.6 24.35 C 365.2 23.75 364.4 23.45 363.2 23.45 C 361.4 23.45 360 24.45 358.9 26.45 C 357.9 28.35 357.4 31.15 357.4 34.65 C 357.4 37.35 357.8 39.65 358.6 41.25 Z" />
	<path fill="currentColor"
		d="M 418.3 51.05 C 415.5 53.45 411.7 54.55 407.2 54.55 C 405.5 54.55 403.8 54.35 402.1 53.95 C 400.4 53.55 399.4 53.35 399.3 53.35 C 398.9 53.35 398.4 53.45 397.6 53.75 C 396.8 54.05 396.2 54.15 395.9 54.15 C 394.5 54.15 392.9 52.95 391.3 50.85 C 389.7 48.65 388.9 46.35 388.9 43.95 C 388.9 42.55 389.2 41.45 389.7 40.75 C 390.2 39.95 391 39.55 392 39.55 C 393.4 39.55 395 40.55 396.8 42.55 C 396.9 42.65 396.9 42.65 397 42.75 C 398.1 43.95 399.1 44.75 400.1 45.45 C 401 46.05 401.9 46.35 402.7 46.35 C 403.3 46.35 403.7 46.25 404.1 45.95 C 404.5 45.55 404.7 45.25 404.7 44.75 C 404.7 43.45 403.5 42.35 401 41.25 C 399.8 40.65 398.8 40.25 398.1 39.85 C 395.4 38.35 393.3 36.55 391.9 34.35 C 390.5 32.25 389.7 29.95 389.7 27.55 C 389.7 24.05 391.1 21.15 394 18.65 C 397 16.15 400.4 14.95 404.4 14.95 C 405.4 14.95 406.6 15.05 408 15.35 C 409.4 15.65 410.3 15.75 410.7 15.75 C 411.2 15.75 411.9 15.65 412.8 15.25 C 413.7 14.85 414.3 14.65 414.7 14.65 C 416.2 14.65 417.7 15.65 419.3 17.75 C 420.9 19.85 421.7 21.95 421.7 24.15 C 421.7 25.35 421.3 26.35 420.5 27.15 C 419.7 27.95 418.7 28.35 417.5 28.35 C 416.7 28.35 415.9 28.15 415.2 27.75 C 414.5 27.35 413.7 26.85 412.9 26.05 C 412.8 25.95 412.5 25.65 412.2 25.25 C 410.7 23.65 409.3 22.85 408.2 22.85 C 407.6 22.85 407.1 23.05 406.7 23.45 C 406.3 23.85 406.1 24.35 406.1 24.85 C 406.1 25.85 407.6 27.05 410.6 28.45 C 411.9 29.05 412.9 29.65 413.6 29.95 C 416.8 31.65 419.1 33.45 420.4 35.25 C 421.8 37.05 422.5 39.25 422.5 41.85 C 422.6 45.65 421.1 48.65 418.3 51.05 Z" />
	<path fill="currentColor"
		d="M 431.8 20.75 C 436.3 16.75 441.7 14.75 448.1 14.75 C 454.1 14.75 459 16.45 462.8 19.95 C 466.6 23.45 468.5 28.05 468.5 33.65 C 468.5 39.65 466.3 44.55 461.9 48.65 C 457.5 52.75 452.1 54.75 445.6 54.75 C 439.8 54.75 434.9 52.85 431 49.05 C 427 45.25 425 40.65 425 35.35 C 425 29.65 427.2 24.75 431.8 20.75 Z M 444.1 40.85 C 445.4 44.05 446.8 45.65 448.4 45.65 C 449.3 45.65 450.1 45.25 450.7 44.35 C 451.3 43.45 451.6 42.35 451.6 40.85 C 451.6 36.45 451 32.55 449.7 29.15 C 448.4 25.85 447 24.15 445.3 24.15 C 444.2 24.15 443.5 24.65 443 25.55 C 442.4 26.55 442.2 28.05 442.2 30.05 C 442.2 34.05 442.9 37.65 444.1 40.85 Z" />
	<path fill="currentColor"
		d="M 473.2 46.65 C 474.1 45.95 474.6 45.55 474.6 45.45 C 474.9 45.05 475 43.85 475.2 41.95 C 475.3 40.05 475.3 36.35 475.3 30.75 L 475.3 29.55 C 475.3 28.35 475.2 27.55 475 27.15 C 474.9 26.75 474.3 26.35 473.4 25.85 C 472.6 25.35 472 24.85 471.7 24.35 C 471.3 23.85 471.2 23.25 471.2 22.65 C 471.2 21.65 471.6 20.75 472.6 19.95 C 473.5 19.15 475 18.35 477.1 17.55 C 479.7 16.55 482.1 15.75 484.4 15.15 C 486.6 14.55 488.4 14.25 489.7 14.25 C 490.7 14.25 491.4 14.55 491.9 15.05 C 492.3 15.65 492.6 16.45 492.6 17.55 C 492.6 18.75 492.7 19.65 492.8 19.95 C 492.9 20.35 493.2 20.55 493.5 20.55 C 493.8 20.55 494.1 20.15 494.6 19.55 C 494.9 19.15 495.1 18.75 495.3 18.45 C 496.3 17.25 497.5 16.25 499 15.55 C 500.4 14.95 502.2 14.65 504 14.65 C 506.4 14.65 508.8 15.05 510.8 15.95 C 512.8 16.85 514.5 17.95 515.6 19.45 C 516.6 20.65 517.3 22.15 517.7 23.85 C 518.1 25.55 518.3 27.85 518.3 30.85 C 518.3 33.05 518.3 35.25 518.2 37.65 C 518.1 40.05 518.1 41.35 518.1 41.65 C 518.1 42.85 518.2 43.75 518.4 44.25 C 518.6 44.75 519 45.35 519.7 45.95 C 519.8 46.05 519.9 46.15 520.1 46.35 C 521 47.25 521.5 48.15 521.5 49.05 C 521.5 50.95 520.5 52.25 518.4 53.05 C 516.4 53.85 512.7 54.25 507.6 54.25 C 504.2 54.25 501.7 53.85 500 53.05 C 498.3 52.35 497.4 51.25 497.4 49.75 C 497.4 48.95 497.7 48.25 498.3 47.65 C 498.9 47.05 499.2 46.55 499.4 46.25 C 499.8 45.55 500 44.45 500.3 43.05 C 500.4 41.65 500.5 39.05 500.5 35.25 C 500.5 32.25 500.1 30.15 499.4 28.75 C 498.7 27.35 497.6 26.75 496 26.75 C 494.8 26.75 493.8 27.25 493.3 28.15 C 492.7 29.15 492.5 30.95 492.5 33.55 C 492.5 38.05 492.6 41.05 492.7 42.55 C 492.9 44.15 493.2 45.25 493.6 45.85 C 493.7 45.95 493.7 46.05 493.9 46.25 C 494.7 47.15 495.1 48.15 495.1 49.25 C 495.1 51.05 494.1 52.25 492.1 53.05 C 490.1 53.85 486.8 54.25 482 54.25 C 478.7 54.25 476.2 53.85 474.4 52.85 C 472.5 51.95 471.7 50.75 471.7 49.15 C 471.9 48.15 472.3 47.35 473.2 46.65 Z" />
	<path fill="currentColor"
		d="M 526.4 33.45 C 525.4 31.75 524.9 29.85 524.9 27.85 C 524.9 24.15 526.6 20.95 530.1 18.45 C 533.6 16.05 537.9 14.75 543.2 14.75 C 545.1 14.75 547.4 15.05 549.9 15.65 C 552.5 16.25 554.1 16.55 554.8 16.55 C 556.8 16.55 558.8 15.95 560.7 14.75 C 562.6 13.55 563.6 13.05 563.7 13.05 C 564.6 13.05 565.3 13.45 565.8 14.05 C 566.3 14.65 566.5 15.55 566.5 16.75 C 566.5 18.15 566.2 19.35 565.6 20.55 C 565 21.75 563.9 22.95 562.4 24.25 C 562.5 24.85 562.5 25.35 562.5 25.85 C 562.6 26.35 562.6 26.75 562.6 27.15 C 562.6 30.85 560.9 33.95 557.6 36.35 C 554.2 38.75 549.9 39.95 544.7 39.95 C 543.8 39.95 542.8 39.95 541.7 39.85 C 540.6 39.75 539.5 39.75 538.4 39.45 C 538 39.65 537.8 39.85 537.6 40.15 C 537.5 40.45 537.4 40.75 537.4 41.05 C 537.4 41.95 537.9 42.55 538.9 43.15 C 540 43.65 541.3 43.95 542.9 43.95 C 543.8 43.95 545.6 43.75 548.3 43.45 C 551 43.05 553.3 42.95 555.2 42.95 C 558.9 42.95 561.6 43.75 563.5 45.35 C 565.4 46.95 566.4 49.25 566.4 52.35 C 566.4 56.85 564.2 60.45 559.8 63.35 C 555.4 66.15 549.6 67.55 542.6 67.55 C 537.1 67.55 532.4 66.55 528.8 64.45 C 525.1 62.35 523.3 59.85 523.3 56.85 C 523.3 55.45 523.7 54.35 524.5 53.45 C 525.4 52.55 526.5 51.75 528.2 51.35 C 526.7 50.55 525.5 49.65 524.7 48.55 C 524 47.45 523.6 46.15 523.6 44.75 C 523.6 43.05 524.2 41.65 525.4 40.35 C 526.6 39.15 528.4 38.15 530.7 37.35 C 528.8 36.55 527.4 35.15 526.4 33.45 Z M 534.4 55.15 C 534.3 55.35 534.3 55.55 534.3 55.75 C 534.3 57.05 535.2 58.15 536.9 59.25 C 538.6 60.35 540.7 60.85 543 60.85 C 545.2 60.85 546.9 60.55 548.2 59.95 C 549.4 59.35 550.1 58.45 550.1 57.35 C 550.1 56.75 549.9 56.15 549.5 55.85 C 549.1 55.45 548.6 55.35 547.8 55.35 C 547.4 55.35 546.6 55.45 545.1 55.45 C 543.7 55.55 542.5 55.65 541.5 55.65 C 540.2 55.65 539 55.55 537.8 55.35 C 536.6 55.25 535.6 54.95 534.4 54.65 C 534.4 54.75 534.4 54.95 534.4 55.15 Z M 541 32.25 C 541.8 33.65 542.9 34.45 544.2 34.45 C 545.4 34.45 546.4 34.05 547 33.05 C 547.6 32.15 547.9 30.65 547.9 28.85 C 547.9 26.15 547.5 24.15 546.7 22.85 C 546 21.45 544.9 20.75 543.5 20.75 C 542.3 20.75 541.3 21.25 540.7 22.15 C 540.1 23.05 539.8 24.45 539.8 26.25 C 539.8 28.75 540.2 30.75 541 32.25 Z" />
</svg>